<svg xmlns="http://www.w3.org/2000/svg" xmlns:xlink="http://www.w3.org/1999/xlink" width="1920" zoomAndPan="magnify" viewBox="0 0 1440 412.499988" height="550" preserveAspectRatio="xMidYMid meet" version="1.0"><defs><clipPath id="id1"><path d="M 0.871094 0 L 1439.128906 0 L 1439.128906 412 L 0.871094 412 Z M 0.871094 0 " clip-rule="nonzero"/></clipPath><clipPath id="id2"><path d="M 685 101.890625 L 824.136719 101.890625 L 824.136719 310.136719 L 685 310.136719 Z M 685 101.890625 " clip-rule="nonzero"/></clipPath><clipPath id="id3"><path d="M 615.890625 214 L 668 214 L 668 233 L 615.890625 233 Z M 615.890625 214 " clip-rule="nonzero"/></clipPath></defs><g clip-path="url(#id1)"><path fill="rgb(100%, 100%, 100%)" d="M 0.871094 0 L 1439.128906 0 L 1439.128906 419.492188 L 0.871094 419.492188 Z M 0.871094 0 " fill-opacity="1" fill-rule="nonzero"/><path fill="rgb(0%, 0%, 0%)" d="M 0.871094 0 L 1439.128906 0 L 1439.128906 412 L 0.871094 412 Z M 0.871094 0 " fill-opacity="1" fill-rule="nonzero"/><path fill="rgb(100%, 100%, 100%)" d="M 0.871094 0 L 1439.128906 0 L 1439.128906 412 L 0.871094 412 Z M 0.871094 0 " fill-opacity="1" fill-rule="nonzero"/><path fill="rgb(0%, 0%, 0%)" d="M 0.871094 0 L 1439.128906 0 L 1439.128906 412 L 0.871094 412 Z M 0.871094 0 " fill-opacity="1" fill-rule="nonzero"/></g><g clip-path="url(#id2)"><path fill="rgb(97.24884%, 78.42865%, 86.268616%)" d="M 824.136719 179.984375 L 772.078125 179.984375 L 772.078125 101.890625 L 685.308594 232.046875 L 737.371094 232.046875 L 737.371094 310.136719 Z M 717.726562 214.691406 L 754.722656 159.207031 L 754.722656 197.339844 L 791.707031 197.339844 L 754.722656 252.820312 L 754.722656 214.691406 Z M 717.726562 214.691406 " fill-opacity="1" fill-rule="nonzero"/></g><g clip-path="url(#id3)"><path fill="rgb(97.24884%, 78.42865%, 86.268616%)" d="M 615.890625 214.691406 L 667.953125 214.691406 L 667.953125 232.046875 L 615.890625 232.046875 Z M 615.890625 214.691406 " fill-opacity="1" fill-rule="nonzero"/></g><path fill="rgb(97.24884%, 78.42865%, 86.268616%)" d="M 633.246094 179.984375 L 693.984375 179.984375 L 693.984375 197.339844 L 633.246094 197.339844 Z M 633.246094 179.984375 " fill-opacity="1" fill-rule="nonzero"/><path fill="rgb(97.24884%, 78.42865%, 86.268616%)" d="M 667.953125 145.277344 L 711.339844 145.277344 L 711.339844 162.632812 L 667.953125 162.632812 Z M 667.953125 145.277344 " fill-opacity="1" fill-rule="nonzero"/><path fill="rgb(97.24884%, 78.42865%, 86.268616%)" d="M 633.246094 249.402344 L 720.015625 249.402344 L 720.015625 266.753906 L 633.246094 266.753906 Z M 633.246094 249.402344 " fill-opacity="1" fill-rule="nonzero"/></svg>